<svg xmlns="http://www.w3.org/2000/svg" id="Layer_2" viewBox="0 0 578.09 227.5">
  <defs>
    <style>
      .cls-1 {
        fill: #104c5d;
      }
    </style>
  </defs>
  <g id="Layer_1-2" data-name="Layer_1">
    <g>
      <path class="cls-1" d="M66.8,1.7C26.9,1.7,0,29,0,70.2s26.9,68.5,66.8,68.5,33.2-5.2,44.6-13.6c.5-.3.6-1,.4-1.5l-8.6-19.5c-.3-.6-1-.7-1.5-.4-9.5,7.4-21.3,11.6-33.4,11.6-25.3,0-40.4-18-40.4-45.2s15.1-45.2,40.4-45.2,24.3,4.8,33.5,11.7c.5.4,1.2.2,1.5-.4l8.9-19.3c.2-.5,0-1.1-.4-1.5C100.6,7,84.7,1.6,66.9,1.6l-.1.1Z"/>
      <path class="cls-1" d="M380.4,59.8c-13.1-6.2-22.8-9.7-22.8-20.4s6.4-13.8,17.1-13.8,18,2.9,30.8,10.4l6.2-25.3c-13.3-6-26.4-8.9-37.5-8.9-26.8,0-44.2,15.5-44.2,37.5s14.7,29,33.9,38.6c13.1,6.7,23.7,11.1,23.7,22.2s-8.6,14-18.9,14-26.9-4.9-37.3-11.5l-7.8,23.1c12.7,8.2,29.3,12.9,44.6,12.9,25.3,0,47.3-12.4,47.3-38.8s-13.5-29.7-35-40.1l-.1.1Z"/>
      <path class="cls-1" d="M219.6.6c-.2-.4-.5-.6-.9-.6h-2c-.4,0-.7.2-.9.6l-58.3,134.6c-.3.6.2,1.3.9,1.3h24.1c.4,0,.7-.2.9-.6l34.5-83,34.4,83c.1.4.5.6.9.6h24.1c.7,0,1.2-.7.9-1.3L219.7.6h-.1Z"/>
      <path class="cls-1" d="M577.9,135.3L519.4.7c-.2-.4-.5-.6-.9-.6h-2c-.4,0-.7.2-.9.6l-58.3,134.6c-.3.6.2,1.3.9,1.3h24.1c.4,0,.7-.2.9-.6l34.5-83,34.4,83c.1.4.5.6.9.6h24.1c.7,0,1.2-.7.9-1.3h-.1Z"/>
    </g>
    <g>
      <path class="cls-1" d="M290.2,183.1h-4.9c-.1,0-.3,0-.3.2l-16.9,24.1-17-24.1c0-.1-.2-.2-.3-.2h-4.9c-.2,0-.4.2-.4.4v43.3c0,.2.2.4.4.4h12.7c.2,0,.4-.2.4-.4v-5.5c0-.2-.2-.4-.4-.4h-6.6v-25.2l15.8,22.1c0,.1.2.2.3.2s.3,0,.3-.2l15.7-22.1v31c0,.2.2.4.4.4h5.7c.2,0,.4-.2.4-.4v-43.3c0-.2-.2-.4-.4-.4v.1Z"/>
      <path class="cls-1" d="M345.9,189.4c-2.1-2-4.6-3.6-7.3-4.8-2.8-1.2-5.8-1.7-9-1.7s-6.2.6-9,1.7c-2.8,1.2-5.2,2.8-7.3,4.8s-3.8,4.4-4.9,7.1c-1.2,2.7-1.8,5.6-1.8,8.7s.6,6,1.8,8.7,2.8,5,4.9,7.1c2.1,2,4.6,3.6,7.3,4.8,2.8,1.2,5.8,1.7,9,1.7s6.2-.6,9-1.7c2.8-1.1,5.2-2.8,7.3-4.8s3.8-4.4,4.9-7.1c1.2-2.7,1.8-5.6,1.8-8.7s-.6-6-1.8-8.7-2.9-5-4.9-7.1ZM344.8,211.4c-.9,1.9-2.1,3.6-3.6,5.1-1.5,1.4-3.3,2.6-5.3,3.4-2,.8-4.1,1.2-6.4,1.2s-4.5-.4-6.4-1.2c-2-.8-3.8-2-5.3-3.4-1.5-1.5-2.7-3.2-3.6-5.1-.9-1.9-1.3-4-1.3-6.2s.4-4.3,1.3-6.2c.9-1.9,2.1-3.6,3.6-5.1s3.3-2.6,5.3-3.5c2-.8,4.1-1.2,6.4-1.2s4.5.4,6.4,1.2c2,.8,3.8,2,5.3,3.5s2.7,3.2,3.6,5.1c.9,1.9,1.3,4,1.3,6.2s-.4,4.3-1.3,6.2Z"/>
      <path class="cls-1" d="M397.1,188.8c-4.4-3.8-11-5.7-19.4-5.7h-8.7c-.2,0-.4.2-.4.4v43.3c0,.2.2.4.4.4h8.7c8.5,0,15-1.9,19.4-5.8,4.5-3.9,6.8-9.4,6.8-16.3s-2.3-12.4-6.8-16.3h0ZM392.4,217c-3.4,2.7-8.4,4.1-14.7,4.1h-2.6v-31.9h2.6c6.4,0,11.3,1.4,14.7,4,3.3,2.6,4.9,6.5,4.9,11.8s-1.6,9.3-4.9,11.9v.1Z"/>
      <path class="cls-1" d="M454.5,226.7l-17.1-43.4c0-.1-.2-.2-.4-.2h-5.6c-.2,0-.3,0-.4.2l-17.1,43.3v.4c0,.1.2.2.3.2h6.1c.2,0,.3,0,.4-.2l13.4-33.9,11.1,28h-7.8c-.2,0-.4.2-.4.4v5.4c0,.2.2.4.4.4h16.7c.1,0,.2,0,.3-.1v-.4l.1-.1Z"/>
      <path class="cls-1" d="M148.5,202.4c2.1-2,3.4-5,3.4-7.9s-1.3-6.3-3.7-8.4c-2.3-2.1-5.2-3.1-9.1-3.1h-14.6c-.2,0-.4.2-.4.4v43.4c0,.2.2.4.4.4h16.6c4.2,0,7.2-.9,9.7-3,3.1-2.5,4.9-6.2,4.9-10.2s-2.9-9.3-7.1-11.5l-.1-.1ZM130.5,189.2h7.4c3.8,0,5.1.9,5.9,1.8,1,1,1.5,2.3,1.5,3.7s-.5,2.7-1.5,3.7c-.8.9-2.1,1.8-5.9,1.8h-7.4v-11ZM147.1,218.8c-1.6,1.6-3.6,2.2-7.1,2.2h-9.4v-14.5h9.4c3.5,0,5.5.6,7.1,2.2,1.3,1.4,2,3.1,2,5s-.7,3.7-2,5.1Z"/>
      <path class="cls-1" d="M205.7,183h-6.4c-.1,0-.3,0-.3.2l-11,17.3-11-17.3c0-.1-.2-.2-.3-.2h-6.4c-.3,0-.5.3-.3.6l14.8,23.4v19.8c0,.2.2.4.4.4h5.7c.2,0,.4-.2.4-.4v-19.8l14.8-23.4c.2-.3,0-.6-.3-.6h-.1Z"/>
    </g>
  </g>
</svg>