<svg xmlns="http://www.w3.org/2000/svg" fill="none" viewBox="0 0 277.09 92.54" role="img">
  <title>Royal Conservatoire of Scotland</title>
  <g fill="#020202" clip-path="url(#logo-horizontal-clip)">
    <path d="M6.036 86.1051H0V1.61206H6.036V86.1051ZM27.494 86.1051H21.456V1.61206H27.494V86.1051ZM38.22 29.7771H32.187V1.61206H38.22V29.7771ZM59.681 29.7771H53.645V1.61206H59.681V29.7771ZM38.22 86.105H32.187V57.939H38.22V86.105ZM48.951 86.105H42.914V57.939H48.951V86.105ZM48.951 53.2451H42.914V1.61206H48.951V53.2451ZM16.763 53.2451H10.727V1.61206H16.763V53.2451ZM59.681 86.1049H53.645V34.4719H59.681V86.1049ZM98.545 46.9609C98.545 40.1229 102.111 37.0339 106.988 37.0339 111.684 37.0339 114.448 40.2739 114.448 45.7129 114.448 52.5509 110.852 55.4639 105.977 55.4639 101.279 55.4639 98.545 52.3989 98.545 46.9609ZM110.794 46.7509C110.794 41.8769 109.543 38.0419 106.362 38.0419 103.302 38.0419 102.172 41.4019 102.172 45.8899 102.172 50.7639 103.54 54.4209 106.78 54.4209 109.871 54.4209 110.794 51.2419 110.794 46.7509ZM146.701 39.4679C146.701 41.1039 145.426 41.7289 143.85 41.7289 143.85 40.8349 143.73 37.9259 141.143 37.9259 139.625 37.9259 138.737 39.0829 138.737 40.3289 138.737 41.9069 139.36 42.6209 141.977 44.2559 145.275 46.3069 147.357 47.5249 147.357 50.5879 147.357 54.0929 143.611 55.4639 140.402 55.4639 137.247 55.4639 135.018 54.3339 135.018 52.2799 135.018 50.5879 136.478 49.9599 138.261 49.9599 138.142 50.4379 138.053 51.0029 138.053 51.7189 138.053 53.0839 138.527 54.5709 140.785 54.5709 142.661 54.5709 144.351 53.6199 144.351 51.5079 144.351 50.1409 143.611 48.9549 140.251 47.0199 137.904 45.6859 135.735 44.4029 135.735 41.5189 135.735 38.1339 139.094 37.0339 141.798 37.0339 143.788 37.0339 146.701 37.4499 146.701 39.4679ZM222.531 46.9609C222.531 40.1229 226.101 37.0339 230.973 37.0339 235.67 37.0339 238.434 40.2739 238.434 45.7129 238.434 52.5509 234.836 55.4639 229.965 55.4639 225.266 55.4639 222.531 52.3989 222.531 46.9609ZM234.779 46.7509C234.779 41.8769 233.531 38.0419 230.349 38.0419 227.287 38.0419 226.153 41.4019 226.153 45.8899 226.153 50.7639 227.524 54.4209 230.765 54.4209 233.857 54.4209 234.779 51.2419 234.779 46.7509ZM162.029 51.0419C160.994 52.6979 159.706 53.1729 157.939 53.1729 154.668 53.1729 152.618 50.5639 152.618 44.9159H161.209C162.484 44.9159 163.022 44.5299 163.022 43.4599 163.022 38.9969 159.78 37.0339 157.312 37.0339 151.844 37.0339 149.141 41.2819 149.141 46.7829 149.141 52.6049 152.262 55.4639 156.69 55.4639 160.602 55.4639 162.466 53.0639 162.913 51.2219L162.029 51.0419ZM156.72 37.9819C158.443 37.9819 159.303 39.9219 159.303 42.6559 159.303 43.3139 159.129 43.6979 158.146 43.7559L152.676 44.1459C153.033 41.2289 154.224 37.9819 156.72 37.9819ZM244.379 34.9489C245.566 34.9489 246.547 33.9709 246.547 32.8109 246.547 31.6209 245.566 30.6399 244.379 30.6399 243.216 30.6399 242.236 31.6209 242.236 32.8109 242.236 33.9709 243.216 34.9489 244.379 34.9489ZM246.311 51.8949C246.193 51.0639 246.132 49.0099 246.132 47.0199V45.7419C246.132 42.0229 246.251 39.8839 246.251 38.8449 246.251 37.8059 245.775 37.3899 245.124 37.3899 244.289 37.3899 241.586 37.8909 240.366 38.2209 240.343 38.2279 240.329 38.2319 240.304 38.2409L240.4 38.9339H241.139C242.863 38.9339 242.95 41.2539 242.95 44.9709V47.0199C242.95 49.0099 242.835 51.0639 242.772 51.8949 242.634 53.5299 242.312 54.3079 240.827 54.4089V55.1659H248.4V54.4209C246.608 54.4059 246.545 53.6619 246.311 51.8949ZM116.13 38.9649H116.385C118.284 38.9649 118.317 41.8769 118.317 45.5919V47.0199C118.317 52.7219 118.314 54.2949 115.997 54.3869V55.1659H123.589V54.3869C121.972 54.3309 121.901 53.6619 121.671 51.9539 121.553 51.1219 121.498 49.0099 121.498 47.0199V45.7419C121.498 44.3139 121.498 42.8579 121.527 41.8769 123.636 40.2109 124.826 39.1129 126.165 39.1129 127.65 39.1129 128.574 40.0939 128.574 46.3369 128.574 53.0189 128.082 54.2869 126.5 54.3859V55.1659H133.965V54.3869C132.51 54.3459 131.986 53.8099 131.986 52.1039V41.4909C131.986 38.9339 130.533 37.0339 128.065 37.0339 125.926 37.0339 124.381 38.2809 122.478 39.8839L121.584 40.6289C121.616 40.0039 121.616 39.1999 121.616 38.8449 121.616 37.8069 121.14 37.3899 120.485 37.3899 119.731 37.3899 117.282 37.7469 115.984 38.1709L116.13 38.9649ZM95.424 48.9711C94.43 52.3161 92.207 54.1861 88.241 54.1861 83.605 54.1861 80.749 50.4381 80.749 43.9271 80.749 36.1411 85.088 33.1091 88.595 33.1091 91.85 33.1091 93.868 34.9211 94.562 38.1041H95.463V33.3141C95.463 32.9001 95.284 32.7811 95.019 32.6931 92.877 32.1861 90.886 32.0081 89.103 32.0081 80.897 32.0081 76.588 36.8811 76.588 43.9271 76.588 51.4491 80.868 55.4641 88.359 55.4641 90.469 55.4641 92.846 55.1371 95.463 54.4521 95.733 54.3921 95.822 54.2421 95.88 53.8271 95.92 53.5041 96.212 50.6231 96.372 48.9711H95.424ZM174.97 37.0339C173.366 37.0339 171.522 37.9819 170.571 42.0839 170.571 39.5889 170.365 37.3899 169.235 37.3899 168.811 37.3899 166.021 37.7879 164.548 38.1049L164.677 38.9649H164.774C167.242 38.9649 167.42 42.0229 167.42 45.7379V47.0199C167.42 49.0099 167.3 51.0639 167.242 51.8949 167.104 53.5199 166.582 54.2749 165.283 54.3779V55.1659H173.12V54.3459C171.423 54.1689 170.865 53.4259 170.662 51.8949 170.571 51.0639 170.483 49.7849 170.483 46.1869 170.483 42.6809 171.876 39.7379 173.546 39.7379 174.824 39.7379 174.85 41.1079 174.85 41.6389 175.746 41.6389 177.528 41.2539 177.528 39.4429 177.528 37.7739 176.488 37.0339 174.97 37.0339ZM195.545 37.4849C195.44 37.4259 195.299 37.3899 195.096 37.3899H189.333V38.0719C190.66 38.0949 191.232 38.5349 191.232 39.3199 191.232 39.5569 191.199 39.8269 191.083 40.1529L187.275 51.0909 183.563 39.6739C183.503 39.4679 183.471 39.3199 183.471 39.1729 183.471 38.6129 183.907 38.2959 184.831 38.1209V37.3899H177.971V38.2039C179.019 38.2599 179.245 38.6729 180.055 40.7199L185.73 54.8389C185.908 55.2869 186.148 55.4929 186.385 55.4929 186.622 55.4929 186.831 55.2869 186.977 54.9569L192.45 41.7589C193.313 39.6469 193.61 38.0709 195.216 38.0709 195.35 38.0709 195.457 38.0449 195.545 38.0019V37.4849ZM260.163 37.0339C258.556 37.0339 256.715 37.9819 255.765 42.0839 255.765 39.5889 255.558 37.3899 254.425 37.3899 253.95 37.3899 250.472 37.8899 249.253 38.2209 249.244 38.2239 249.238 38.2279 249.229 38.2299L249.329 38.9649H249.965C252.432 38.9649 252.615 42.0229 252.615 45.7379V47.0199C252.615 49.0099 252.494 51.0639 252.432 51.8949 252.283 53.6499 251.689 54.3919 250.142 54.3919 250.131 54.3919 250.125 54.3939 250.114 54.3939V55.1659H259.33C259.63 55.1659 259.775 54.9859 259.775 54.8099 259.775 54.5979 259.6 54.3919 259.243 54.3919 256.802 54.3919 256.088 53.6799 255.851 51.8949 255.765 51.0639 255.674 49.7849 255.674 46.1869 255.674 42.6809 257.071 39.7379 258.733 39.7379 260.014 39.7379 260.045 41.1079 260.045 41.6389 260.936 41.6389 262.718 41.2539 262.718 39.4429 262.718 37.7739 261.683 37.0339 260.163 37.0339ZM276.095 51.0419C275.064 52.6979 273.773 53.1729 272.005 53.1729 268.738 53.1729 266.684 50.5639 266.684 44.9159H275.278C276.553 44.9159 277.089 44.5299 277.089 43.4599 277.089 38.9969 273.848 37.0339 271.383 37.0339 265.911 37.0339 263.206 41.2819 263.206 46.7829 263.206 52.6049 266.328 55.4639 270.755 55.4639 274.668 55.4639 276.538 53.0639 276.981 51.2219L276.095 51.0419ZM270.788 37.9819C272.512 37.9819 273.373 39.9219 273.373 42.6559 273.373 43.3139 273.195 43.6979 272.212 43.7559L266.745 44.1459C267.099 41.2289 268.288 37.9819 270.788 37.9819ZM219.727 53.0299C219.34 53.4349 218.828 53.6799 218.22 53.6799 217.122 53.6799 216.555 52.9919 216.555 51.1799V38.6359H220.36C220.477 38.6359 220.574 38.6239 220.666 38.6099V37.3369C220.627 37.3359 220.586 37.3269 220.54 37.3269 219.557 37.3269 217.805 37.5669 216.555 37.5669V34.3559C216.555 33.9389 216.407 33.7629 216.172 33.7629 215.99 33.7629 215.813 33.9099 215.544 34.1469L211.772 37.8639C211.531 38.1039 211.444 38.2499 211.444 38.3969 211.444 38.5809 211.563 38.6669 211.8 38.6669H213.256C213.256 41.5189 213.046 48.3299 213.046 51.3619 213.046 54.0349 214.354 55.4929 217.267 55.4929 218.593 55.4929 219.838 54.9559 220.554 53.8579L219.727 53.0299ZM209.581 53.2089C209.397 53.4119 209.152 53.5589 208.799 53.5589 207.61 53.5589 207.61 52.5219 207.61 50.2609 207.61 45.8309 207.786 43.0389 207.786 41.9649 207.786 38.3109 205.499 37.0339 201.99 37.0339 198.247 37.0339 195.81 38.4289 195.81 40.5339 195.81 41.7589 196.553 42.6209 197.977 42.6209 198.277 42.6209 198.603 42.5899 198.989 42.4989 198.899 42.1439 198.839 41.6679 198.839 41.1619 198.839 39.7069 199.345 37.9259 201.248 37.9259 203.716 37.9259 204.458 40.3589 204.458 44.0769V45.4079C204.012 45.3759 203.566 45.3489 203.09 45.3489 199.493 45.3489 195.155 46.9609 195.155 51.4179 195.155 53.9769 197.116 55.4639 199.762 55.4639 201.457 55.4639 203.21 54.7179 204.429 53.4119 204.814 54.3629 205.708 55.4639 207.521 55.4639 208.983 55.4639 209.879 54.7969 210.307 53.9349L209.581 53.2089ZM204.308 52.6049C203.36 53.2929 202.556 53.5019 201.515 53.5019 199.762 53.5019 198.633 52.6049 198.633 50.8229 198.633 48.0919 200.803 46.2699 203.805 46.2699H204.458C204.458 47.8449 204.458 51.6249 204.308 52.6049ZM95.24 16.1431C95.24 9.30509 98.806 6.21509 103.683 6.21509 108.378 6.21509 111.142 9.45609 111.142 14.8951 111.142 21.7331 107.547 24.6461 102.67 24.6461 97.975 24.6461 95.24 21.5811 95.24 16.1431ZM107.486 15.9331C107.486 11.0591 106.239 7.22409 103.055 7.22409 99.996 7.22409 98.863 10.5841 98.863 15.0721 98.863 19.9461 100.234 23.6031 103.475 23.6031 106.565 23.6031 107.486 20.4241 107.486 15.9331ZM128.603 6.57202H122.391V7.28702C123.75 7.33302 124.37 7.80402 124.37 8.62502 124.37 8.82902 124.311 9.06602 124.251 9.33502L121.129 20.127 116.582 8.88902C116.491 8.68002 116.431 8.47302 116.431 8.29402 116.431 7.68802 116.925 7.29402 117.885 7.21102V6.57202H111.112C111.081 6.57202 111.055 6.57202 111.028 6.57802V7.37302C112.246 7.38602 112.554 8.14902 114.055 11.593L119.556 24.227 118.575 26.545C118.127 27.617 117.712 28.153 116.463 28.153 115.332 28.153 114.739 27.408 114.532 27.051 113.995 27.231 113.638 27.648 113.638 28.478 113.638 29.517 114.381 30.739 116.256 30.739 118.131 30.739 119.021 29.49 119.584 27.885L125.47 11.147C126.371 8.55502 127.382 7.40602 128.603 7.29402V6.57202ZM95.828 23.509C95.442 23.452 95.025 23.348 94.629 23.127 93.408 22.444 91.09 20.181 87.166 13.941 89.664 13.317 92.488 11.713 92.488 7.939 92.488 3.656 89.577 1.604 84.819 1.604H76.588V2.595C78.014 2.809 78.186 3.564 78.31 4.995 78.369 5.857 78.487 8.147 78.487 12.221V14.121C78.487 18.219 78.369 20.181 78.31 21.017 78.189 22.391 77.879 23.177 76.588 23.439V24.348H84.003V23.457C82.745 23.225 82.363 22.502 82.173 21.077 81.995 19.707 81.995 16.561 81.995 11.266V3.21C82.59 2.914 83.008 2.821 83.78 2.821 87.464 2.821 88.77 5.352 88.77 8.147 88.77 11.477 86.514 13.555 83.242 13.555 83.22 13.555 83.2 13.557 83.183 13.559L84.131 15.151C88.7 22.595 90.205 24.675 92.012 24.675 93.143 24.675 94.697 24.606 95.828 24.451V23.509ZM144.687 1.845H145.21C146.929 1.845 147.139 2.615 147.139 5.71V16.201C147.139 18.192 147.021 20.452 146.96 21.286 146.82 22.95 146.381 23.516 144.915 23.569V24.348H152.726V23.574C150.971 23.574 150.796 23.068 150.558 21.286 150.437 20.452 150.409 18.192 150.409 16.201V1.457C150.409.419 149.933 0 149.279 0 148.465 0 145.848.821 144.561 1.163L144.687 1.845ZM142.731 22.3351C142.548 22.5681 142.295 22.7411 141.908 22.7411 140.718 22.7411 140.718 21.7041 140.718 19.4431 140.718 15.0131 140.897 12.2211 140.897 11.1471 140.897 7.49309 138.61 6.21509 135.101 6.21509 131.355 6.21509 128.919 7.61109 128.919 9.71609 128.919 10.9411 129.661 11.8021 131.089 11.8021 131.387 11.8021 131.712 11.7721 132.099 11.6811 132.008 11.3261 131.952 10.8501 131.952 10.3441 131.952 8.88909 132.456 7.10809 134.359 7.10809 136.825 7.10809 137.569 9.54009 137.569 13.2591V14.5901C137.124 14.5571 136.675 14.5311 136.199 14.5311 132.603 14.5311 128.265 16.1431 128.265 20.6001 128.265 23.1591 130.227 24.6461 132.871 24.6461 134.566 24.6461 136.321 23.9001 137.539 22.5931 137.926 23.5451 138.816 24.6461 140.63 24.6461 142.133 24.6461 143.038 23.9461 143.449 23.0501L142.731 22.3351ZM137.418 21.7871C136.469 22.4751 135.665 22.6841 134.623 22.6841 132.871 22.6841 131.742 21.7871 131.742 20.0041 131.742 17.2741 133.911 15.4521 136.914 15.4521H137.569C137.569 17.0271 137.569 20.8071 137.418 21.7871ZM89.338 76.2589C89.338 82.3539 85.533 85.9789 81.82 85.9789 78.936 85.9789 76.588 84.4319 76.588 80.0359 76.588 73.8819 80.393 70.2539 84.107 70.2539 86.99 70.2539 89.338 71.8009 89.338 76.2589ZM79.44 79.8569C79.44 82.9209 80.66 84.5249 82.324 84.5249 84.673 84.5249 86.487 81.3729 86.487 76.3789 86.487 73.3149 85.328 71.7109 83.603 71.7109 81.255 71.7109 79.44 74.8639 79.44 79.8569ZM140.823 77.5371C140.823 70.7031 144.391 67.6111 149.263 67.6111 153.96 67.6111 156.724 70.8511 156.724 76.2901 156.724 83.1251 153.132 86.0391 148.255 86.0391 143.558 86.0391 140.823 82.9791 140.823 77.5371ZM153.07 77.3301C153.07 72.4571 151.821 68.6191 148.641 68.6191 145.58 68.6191 144.448 71.9801 144.448 76.4681 144.448 81.3431 145.817 84.9981 149.056 84.9981 152.147 84.9981 153.07 81.8181 153.07 77.3301ZM138.152 81.3751C137.051 83.3061 135.659 83.6931 133.985 83.6931 131.281 83.6931 129.469 81.0161 129.469 76.7681 129.469 71.3831 130.657 68.5331 133.364 68.5331 135.682 68.5331 136.128 71.1481 136.395 72.9901 137.611 72.9901 139.07 72.5751 139.07 70.7921 139.07 68.0841 135.857 67.6111 134.016 67.6111 129.288 67.6111 125.811 70.7291 125.811 77.5371 125.811 83.5471 129.109 86.0391 132.736 86.0391 136.71 86.0391 138.667 83.4101 139.096 81.5141L138.152 81.3751ZM113.804 67.3729C113.804 64.8449 115.111 63.7179 117.311 63.7179 119.647 63.7179 121.654 65.6019 122.007 68.1569H122.99V64.1029C122.99 63.7769 122.869 63.6239 122.66 63.5069 121.322 62.9449 119.541 62.5549 117.76 62.5549 114.158 62.5549 110.592 64.0729 110.592 68.5039 110.592 74.9819 120.818 76.5299 120.818 80.8379 120.818 83.9889 118.141 84.8809 116.27 84.8809 113.811 84.8809 112.398 83.1849 111.223 79.7189H110.232C110.308 80.7929 110.513 83.3799 110.564 84.1089 110.592 84.5859 110.654 84.8809 110.948 84.9979 112.495 85.6239 114.427 86.0389 116.27 86.0389 120.104 86.0389 123.734 84.3169 123.734 79.3819 123.734 73.4359 113.804 72.5159 113.804 67.3729ZM177.46 84.97C175.708 84.97 175.525 84.462 175.289 82.68 175.171 81.847 175.138 79.591 175.138 77.6V62.854C175.138 61.813 174.662 61.396 174.012 61.396 173.199 61.396 170.576 62.219 169.29 62.563L169.418 63.238H169.937C171.664 63.238 171.87 64.012 171.87 67.102V77.6C171.87 79.591 171.751 81.847 171.693 82.68 171.545 84.432 171.066 84.97 169.405 84.97 169.344 84.97 169.287 84.979 169.237 84.99V85.736C169.262 85.742 169.283 85.744 169.312 85.744H177.46V84.97ZM195.912 69.5411H196.166C198.069 69.5411 198.102 72.4571 198.102 76.1731V77.6001C198.102 83.3021 198.097 84.8751 195.784 84.9641V85.7441H203.374V84.9641C201.754 84.9091 201.685 84.2381 201.456 82.5311 201.338 81.6981 201.282 79.5911 201.282 77.6001V76.3201C201.282 74.8921 201.282 73.4361 201.31 72.4571 203.42 70.7921 204.612 69.6911 205.951 69.6911 207.435 69.6911 208.357 70.6701 208.357 76.9141 208.357 83.5991 207.865 84.8631 206.287 84.9621V85.7441H213.749V84.9641C212.295 84.9251 211.773 84.3901 211.773 82.6801V72.0671C211.773 69.5111 210.318 67.6111 207.851 67.6111 205.711 67.6111 204.165 68.8571 202.262 70.4641L201.372 71.2061C201.403 70.5801 201.403 69.7811 201.403 69.4221 201.403 68.3811 200.926 67.9651 200.27 67.9651 199.518 67.9651 197.063 68.3261 195.771 68.7481L195.912 69.5411ZM232.501 83.9C232.336 84.039 232.126 84.139 231.841 84.139 230.74 84.139 230.651 83.097 230.651 80.838V62.854C230.651 61.813 230.173 61.396 229.523 61.396 228.708 61.396 226.101 62.213 224.812 62.556L224.941 63.241H225.449C227.175 63.241 227.381 64.012 227.381 67.102V68.887C226.191 67.906 224.822 67.611 223.487 67.611 218.818 67.611 215.849 71.416 215.849 77.925 215.849 82.472 217.989 86.039 222.446 86.039 224.409 86.039 226.071 85.328 227.47 83.989 227.856 84.94 228.747 86.039 230.561 86.039 231.94 86.039 232.812 85.453 233.266 84.664L232.501 83.9ZM227.441 77.925C227.441 79.887 227.353 82.385 227.292 83.215 225.981 83.96 224.973 84.286 224.021 84.286 220.871 84.286 219.416 81.078 219.416 77.153 219.416 72.335 221.169 68.828 224.111 68.828 225.955 68.828 227.441 70.405 227.441 72.871V77.925ZM166.785 83.5989C166.401 84.0109 165.884 84.2559 165.269 84.2559 164.169 84.2559 163.605 83.5729 163.605 81.7609V69.2169H167.41C167.524 69.2169 167.624 69.2049 167.713 69.1879V67.9159C167.677 67.9119 167.633 67.9059 167.587 67.9059 166.609 67.9059 164.853 68.1469 163.605 68.1469V64.9339C163.605 64.5169 163.459 64.3379 163.219 64.3379 163.041 64.3379 162.861 64.4879 162.593 64.7279L158.819 68.4419C158.583 68.6799 158.496 68.8279 158.496 68.9769 158.496 69.1559 158.612 69.2439 158.853 69.2439H160.307C160.307 72.0989 160.1 78.9059 160.1 81.9399 160.1 84.6149 161.406 86.0689 164.318 86.0689 165.647 86.0689 166.896 85.5299 167.615 84.4229L166.785 83.5989ZM193.378 83.7601C193.196 83.9761 192.945 84.1391 192.577 84.1391 191.385 84.1391 191.385 83.0971 191.385 80.8381 191.385 76.4081 191.563 73.6151 191.563 72.5451 191.563 68.8871 189.277 67.6111 185.768 67.6111 182.022 67.6111 179.586 69.0091 179.586 71.1181 179.586 72.3351 180.327 73.1961 181.755 73.1961 182.051 73.1961 182.376 73.1691 182.769 73.0801 182.675 72.7241 182.616 72.2461 182.616 71.7431 182.616 70.2861 183.12 68.5041 185.027 68.5041 187.494 68.5041 188.236 70.9401 188.236 74.6531V75.9841C187.789 75.9561 187.346 75.9271 186.868 75.9271 183.27 75.9271 178.93 77.5371 178.93 81.9991 178.93 84.5551 180.891 86.0391 183.537 86.0391 185.233 86.0391 186.987 85.2951 188.205 83.9891 188.594 84.9401 189.483 86.0391 191.295 86.0391 192.778 86.0391 193.682 85.3601 194.099 84.4821L193.378 83.7601ZM188.086 83.1861C187.135 83.8711 186.334 84.0781 185.295 84.0781 183.537 84.0781 182.41 83.1861 182.41 81.4021 182.41 78.6671 184.581 76.8491 187.582 76.8491H188.236C188.236 78.4221 188.236 82.2071 188.086 83.1861ZM101.846 59.884C99.555 59.884 96.688 60.745 95.74 65.327L94.611 70.455H92.739C92.687 70.455 92.637 70.462 92.589 70.471L92.31 71.814C92.383 71.839 92.463 71.855 92.561 71.855H94.285L90.521 87.941C90.088 89.028 89.685 90.148 88.72 90.845L88.961 92.545C91.898 91.233 93.239 87.714 93.958 84.227L96.905 71.823H100.097L100.378 70.474C100.314 70.462 100.251 70.455 100.172 70.455H97.14L98.505 64.257C98.958 62.057 99.976 61.254 101.133 61.254 102.92 61.254 102.764 63.095 102.669 64.198 104.126 64.198 105.35 63.81 105.477 62.293 105.605 60.779 104.224 59.884 101.846 59.884Z"></path>
  </g>
  <defs>
    <clipPath id="logo-horizontal-clip">
      <path fill="#fff" d="M0 0H277.089V92.545H0z"></path>
    </clipPath>
  </defs>
</svg>